<?xml version="1.0" encoding="UTF-8" standalone="no"?>
<svg
   version="1.1"
   id="mdi-food-drumstick"
   width="24"
   height="24"
   viewBox="0 0 24 24"
   sodipodi:docname="food-drumstick.svg"
   inkscape:version="1.3.2 (091e20ef0f, 2023-11-25)"
   xml:space="preserve"
   xmlns:inkscape="http://www.inkscape.org/namespaces/inkscape"
   xmlns:sodipodi="http://sodipodi.sourceforge.net/DTD/sodipodi-0.dtd"
   xmlns="http://www.w3.org/2000/svg"
   xmlns:svg="http://www.w3.org/2000/svg"><defs
     id="defs1" /><sodipodi:namedview
     id="namedview1"
     pagecolor="#ffffff"
     bordercolor="#000000"
     borderopacity="0.25"
     inkscape:showpageshadow="2"
     inkscape:pageopacity="0.0"
     inkscape:pagecheckerboard="0"
     inkscape:deskcolor="#d1d1d1"
     inkscape:zoom="11.799844"
     inkscape:cx="7.5424723"
     inkscape:cy="1.059336"
     inkscape:window-width="1920"
     inkscape:window-height="1043"
     inkscape:window-x="0"
     inkscape:window-y="0"
     inkscape:window-maximized="1"
     inkscape:current-layer="mdi-food-drumstick" /><path
     d="m 5.9083846,16.32751 c 0,3.796941 3.4679631,6.771438 7.4019764,5.935289 2.28913,-0.46605 4.139624,-2.302837 4.633089,-4.591966 0.431783,-1.980715 -0.109659,-3.851769 -1.240516,-5.215653 -0.815588,-0.993784 -1.315907,-2.179471 -1.315907,-3.4405514 v -0.041122 c 0,-1.5900541 -1.213102,-2.8031559 -2.70035,-2.7963022 h -1.35703 c -1.4941027,0 -2.7072044,1.2131017 -2.7072044,2.7072043 0,1.3296183 -0.514026,2.5701343 -1.3638827,3.6256013 -0.8361491,1.04176 -1.3433216,2.371374 -1.3501753,3.8175 M 11.252523,3.0354316 c 0.04668,-0.3852571 -0.467872,-1.4321162 -0.467872,-1.4321162 1.908284,-0.099581 2.023765,0.7574714 2.254548,1.4321162 l -0.03257,2.4136895 c -0.214911,-0.032562 -0.462382,-0.071637 -0.69683,-0.071637 h -0.314868 c -0.26701,0.00651 -0.507969,0.026049 -0.774978,0.097686 z"
     id="path1"
     sodipodi:nodetypes="ccccsscssccccccsccc"
     style="stroke-width:0.999998" /></svg>
