<?xml version="1.0" encoding="UTF-8" standalone="no"?>
<svg
   xmlns:dc="http://purl.org/dc/elements/1.1/"
   xmlns:cc="http://creativecommons.org/ns#"
   xmlns:rdf="http://www.w3.org/1999/02/22-rdf-syntax-ns#"
   xmlns:svg="http://www.w3.org/2000/svg"
   xmlns="http://www.w3.org/2000/svg"
   xmlns:sodipodi="http://sodipodi.sourceforge.net/DTD/sodipodi-0.dtd"
   xmlns:inkscape="http://www.inkscape.org/namespaces/inkscape"
   version="1.1"
   id="mdi-hand-heart"
   width="24"
   height="24"
   viewBox="0 0 24 24"
   sodipodi:docname="tangible.svg"
   inkscape:version="0.92.5 (2060ec1f9f, 2020-04-08)">
  <metadata
     id="metadata9">
    <rdf:RDF>
      <cc:Work
         rdf:about="">
        <dc:format>image/svg+xml</dc:format>
        <dc:type
           rdf:resource="http://purl.org/dc/dcmitype/StillImage" />
      </cc:Work>
    </rdf:RDF>
  </metadata>
  <defs
     id="defs7" />
  <sodipodi:namedview
     pagecolor="#ffffff"
     bordercolor="#666666"
     borderopacity="1"
     objecttolerance="10"
     gridtolerance="10"
     guidetolerance="10"
     inkscape:pageopacity="0"
     inkscape:pageshadow="2"
     inkscape:window-width="1920"
     inkscape:window-height="1016"
     id="namedview5"
     showgrid="false"
     inkscape:zoom="27.812867"
     inkscape:cx="12.785559"
     inkscape:cy="9.6103575"
     inkscape:window-x="1920"
     inkscape:window-y="27"
     inkscape:window-maximized="1"
     inkscape:current-layer="mdi-hand-heart" />
  <path
     id="path829"
     style="stroke:#ffffff;paint-order:stroke markers fill;stroke-width:0;stroke-miterlimit:4;stroke-dasharray:none"
     d="m 20,17 q 0.86,0 1.45,0.6 0.59,0.6 0.58,1.4 L 14,22 7,20 v -9 h 1.95 l 7.27,2.69 Q 17,14 17,14.81 17,15.28 16.66,15.63 16.32,15.98 15.8,16 H 13 L 11.25,15.33 10.92,16.27 13,17 h 7 M 0.984,11 H 5 V 22 H 0.984 Z M 16.068359,0.76171875 c -0.25,0 -0.5,0.0614062 -0.75,0.19140625 L 9.8378906,4.1328125 c -0.5,0.32 -0.7695312,0.7503125 -0.7695312,1.3203125 v 4.4960938 h 0.070312 L 11.068359,10.664062 V 6.9023438 l 4,2.3007812 v 2.941406 l 1.527344,0.564453 0.01172,0.0059 c 0.163026,0.06479 0.316095,0.157412 0.460937,0.263672 V 9.203125 l 4,-2.3007812 v 4.5898442 l -3.486328,2.005859 c 0.285787,0.386503 0.46875,0.84936 0.46875,1.3125 0,0.345983 -0.173548,0.655157 -0.359375,0.955078 l 4.605469,-2.673828 c 0.5,-0.32 0.771484,-0.750313 0.771484,-1.320313 V 5.453125 c 0,-0.57 -0.271484,-1.0003125 -0.771484,-1.3203125 L 16.818359,0.953125 c -0.25,-0.13 -0.5,-0.19140625 -0.75,-0.19140625 z m 0,2.06054685 4,2.3496094 -4,2.2910156 -4,-2.2910156 z" />
</svg>
