<?xml version="1.0" encoding="UTF-8" standalone="no"?>
<svg
   xmlns:dc="http://purl.org/dc/elements/1.1/"
   xmlns:cc="http://creativecommons.org/ns#"
   xmlns:rdf="http://www.w3.org/1999/02/22-rdf-syntax-ns#"
   xmlns:svg="http://www.w3.org/2000/svg"
   xmlns="http://www.w3.org/2000/svg"
   xmlns:sodipodi="http://sodipodi.sourceforge.net/DTD/sodipodi-0.dtd"
   xmlns:inkscape="http://www.inkscape.org/namespaces/inkscape"
   version="1.1"
   id="mdi-human-handsup"
   width="24"
   height="24"
   viewBox="0 0 24 24"
   sodipodi:docname="torso.svg"
   inkscape:version="0.92.5 (2060ec1f9f, 2020-04-08)">
  <metadata
     id="metadata9">
    <rdf:RDF>
      <cc:Work
         rdf:about="">
        <dc:format>image/svg+xml</dc:format>
        <dc:type
           rdf:resource="http://purl.org/dc/dcmitype/StillImage" />
      </cc:Work>
    </rdf:RDF>
  </metadata>
  <defs
     id="defs7" />
  <sodipodi:namedview
     pagecolor="#ffffff"
     bordercolor="#666666"
     borderopacity="1"
     objecttolerance="10"
     gridtolerance="10"
     guidetolerance="10"
     inkscape:pageopacity="0"
     inkscape:pageshadow="2"
     inkscape:window-width="1920"
     inkscape:window-height="1016"
     id="namedview5"
     showgrid="false"
     inkscape:zoom="19.666667"
     inkscape:cx="9.3859265"
     inkscape:cy="11.980753"
     inkscape:window-x="1920"
     inkscape:window-y="27"
     inkscape:window-maximized="1"
     inkscape:current-layer="mdi-human-handsup" />
  <path
     id="path2"
     d="M 13,20.102092 V 22 h 2 v -1.897908 z m -4,0 V 22 h 2 v -1.897908 z m 4,-3.610334 v 1.820908 h 2 v -1.820908 z m -4,0 v 1.820908 h 2 V 16.491758 Z M 10.027344,5.59375 8.9902344,7.3144531 c 0.00346,0.00165 0.0063,0.00421 0.00977,0.00586 V 14.939454 H 15.000004 V 7.3164062 L 13.960938,5.59375 C 13.341376,5.8600181 12.674354,5.9982059 12,6 11.321699,5.9997906 10.650533,5.8615703 10.027344,5.59375 Z m 5.498047,-1.0527344 c -0.08987,0.088121 -0.183035,0.1728164 -0.279297,0.2539063 l 1.03125,1.7148437 C 16.551884,6.297662 16.807035,6.0665169 17.044922,5.8183594 Z M 8.4589844,4.5273438 6.9375,5.8046875 c 0.2403225,0.2531027 0.4992672,0.4867536 0.7773438,0.703125 l 1.03125,-1.7148437 C 8.6469628,4.7082058 8.5511864,4.6195963 8.4589844,4.5273438 Z M 16.558594,3.0449219 c -0.04202,0.09447 -0.08697,0.1876137 -0.134766,0.2792969 l 1.548828,1.3027343 C 18.131238,4.366728 18.276826,4.0977414 18.400391,3.8183594 Z M 7.4316406,3.015625 5.5878906,3.7890625 C 5.7112977,4.0718615 5.8564677,4.3439126 6.015625,4.6074219 L 7.5664062,3.3046875 C 7.5184219,3.2097909 7.4734772,3.1133877 7.4316406,3.015625 Z M 17,1 c -0.0012,0.1932636 -0.01358,0.3862958 -0.03711,0.578125 l 1.884765,0.7910156 C 18.937432,1.9221422 19,1.4668835 19,1 Z m -5,0 c -1.11,0 -2,0.89 -2,2 0,1.11 0.89,2 2,2 1.11,0 2,-0.89 2,-2 C 14,1.89 13.11,1 12,1 Z M 5,1 C 5,1.4558554 5.058867,1.9008193 5.1445312,2.3378906 L 7.0351562,1.5429688 C 7.0135911,1.3627514 7.001855,1.1814935 7,1 Z"
     inkscape:connector-curvature="0"
     sodipodi:nodetypes="ccccccccccccccccccccccccccccccccccccccccccccccccccccccsssssccccc" />
  <g
     id="g846"
     transform="translate(-0.12711865,0.12711865)" />
  <g
     id="g854"
     transform="matrix(-1,0,0,1,24.140077,0.16743525)" />
</svg>
